<mxfile host="app.diagrams.net" modified="2024-05-13T06:45:04.593Z" agent="Mozilla/5.0 (Windows NT 10.0; Win64; x64) AppleWebKit/537.36 (KHTML, like Gecko) Chrome/124.0.0.0 Safari/537.36" etag="tCIRf8P3j9BkS24aBIPA" version="24.4.0" type="google">
  <diagram name="Page-1" id="zRmnyNEg3_zy5Yur0E_o">
    <mxGraphModel grid="1" page="1" gridSize="10" guides="1" tooltips="1" connect="1" arrows="1" fold="1" pageScale="1" pageWidth="850" pageHeight="1100" math="0" shadow="0">
      <root>
        <mxCell id="0" />
        <mxCell id="1" parent="0" />
        <mxCell id="ZgPxEoPp8YiGuE_f1vzz-1" style="edgeStyle=orthogonalEdgeStyle;rounded=0;orthogonalLoop=1;jettySize=auto;html=1;" edge="1" parent="1">
          <mxGeometry relative="1" as="geometry">
            <mxPoint x="105.02999999999989" y="-2850" as="targetPoint" />
            <mxPoint x="174.9955172413793" y="-2850" as="sourcePoint" />
            <Array as="points">
              <mxPoint x="175.03" y="-2800" />
              <mxPoint x="105.03" y="-2800" />
            </Array>
          </mxGeometry>
        </mxCell>
        <mxCell id="ZgPxEoPp8YiGuE_f1vzz-2" value="Pelicula" style="swimlane;fontStyle=0;align=center;verticalAlign=top;childLayout=stackLayout;horizontal=1;startSize=30;horizontalStack=0;resizeParent=1;resizeLast=0;collapsible=1;marginBottom=0;rounded=0;shadow=0;strokeWidth=1;fillColor=#fff2cc;strokeColor=#d6b656;" vertex="1" parent="1">
          <mxGeometry x="40" y="-3030" width="200" height="180" as="geometry">
            <mxRectangle x="110" y="-20" width="160" height="26" as="alternateBounds" />
          </mxGeometry>
        </mxCell>
        <mxCell id="ZgPxEoPp8YiGuE_f1vzz-3" value="- titulo: String" style="text;align=left;verticalAlign=top;spacingLeft=4;spacingRight=4;overflow=hidden;rotatable=0;points=[[0,0.5],[1,0.5]];portConstraint=eastwest;rounded=0;shadow=0;html=0;" vertex="1" parent="ZgPxEoPp8YiGuE_f1vzz-2">
          <mxGeometry y="30" width="200" height="22" as="geometry" />
        </mxCell>
        <mxCell id="ZgPxEoPp8YiGuE_f1vzz-4" value="- anio: Year" style="text;align=left;verticalAlign=top;spacingLeft=4;spacingRight=4;overflow=hidden;rotatable=0;points=[[0,0.5],[1,0.5]];portConstraint=eastwest;rounded=0;shadow=0;html=0;" vertex="1" parent="ZgPxEoPp8YiGuE_f1vzz-2">
          <mxGeometry y="52" width="200" height="22" as="geometry" />
        </mxCell>
        <mxCell id="ZgPxEoPp8YiGuE_f1vzz-5" value="- puntaje: double" style="text;align=left;verticalAlign=top;spacingLeft=4;spacingRight=4;overflow=hidden;rotatable=0;points=[[0,0.5],[1,0.5]];portConstraint=eastwest;rounded=0;shadow=0;html=0;" vertex="1" parent="ZgPxEoPp8YiGuE_f1vzz-2">
          <mxGeometry y="74" width="200" height="22" as="geometry" />
        </mxCell>
        <mxCell id="ZgPxEoPp8YiGuE_f1vzz-6" value="- similares: Pelicula[*]" style="text;align=left;verticalAlign=top;spacingLeft=4;spacingRight=4;overflow=hidden;rotatable=0;points=[[0,0.5],[1,0.5]];portConstraint=eastwest;rounded=0;shadow=0;html=0;" vertex="1" parent="ZgPxEoPp8YiGuE_f1vzz-2">
          <mxGeometry y="96" width="200" height="22" as="geometry" />
        </mxCell>
        <mxCell id="ZgPxEoPp8YiGuE_f1vzz-7" value="" style="line;html=1;strokeWidth=1;align=left;verticalAlign=middle;spacingTop=-1;spacingLeft=3;spacingRight=3;rotatable=0;labelPosition=right;points=[];portConstraint=eastwest;" vertex="1" parent="ZgPxEoPp8YiGuE_f1vzz-2">
          <mxGeometry y="118" width="200" height="8" as="geometry" />
        </mxCell>
        <mxCell id="ZgPxEoPp8YiGuE_f1vzz-8" value="+ agregarSimilar(pelicula: Pelicula)" style="text;align=left;verticalAlign=top;spacingLeft=4;spacingRight=4;overflow=hidden;rotatable=0;points=[[0,0.5],[1,0.5]];portConstraint=eastwest;rounded=0;shadow=0;html=0;" vertex="1" parent="ZgPxEoPp8YiGuE_f1vzz-2">
          <mxGeometry y="126" width="200" height="24" as="geometry" />
        </mxCell>
        <mxCell id="ZgPxEoPp8YiGuE_f1vzz-9" value="+ toString(): String" style="text;align=left;verticalAlign=top;spacingLeft=4;spacingRight=4;overflow=hidden;rotatable=0;points=[[0,0.5],[1,0.5]];portConstraint=eastwest;rounded=0;shadow=0;html=0;" vertex="1" parent="ZgPxEoPp8YiGuE_f1vzz-2">
          <mxGeometry y="150" width="200" height="22" as="geometry" />
        </mxCell>
        <mxCell id="ZgPxEoPp8YiGuE_f1vzz-10" style="edgeStyle=orthogonalEdgeStyle;rounded=0;orthogonalLoop=1;jettySize=auto;html=1;entryX=0.5;entryY=0;entryDx=0;entryDy=0;" edge="1" parent="1" source="ZgPxEoPp8YiGuE_f1vzz-11" target="ZgPxEoPp8YiGuE_f1vzz-20">
          <mxGeometry relative="1" as="geometry" />
        </mxCell>
        <mxCell id="ZgPxEoPp8YiGuE_f1vzz-11" value="Decodificador" style="swimlane;fontStyle=0;align=center;verticalAlign=top;childLayout=stackLayout;horizontal=1;startSize=30;horizontalStack=0;resizeParent=1;resizeLast=0;collapsible=1;marginBottom=0;rounded=0;shadow=0;strokeWidth=1;fillColor=#fff2cc;strokeColor=#d6b656;" vertex="1" parent="1">
          <mxGeometry x="350" y="-3050" width="260" height="210" as="geometry">
            <mxRectangle x="110" y="-20" width="160" height="26" as="alternateBounds" />
          </mxGeometry>
        </mxCell>
        <mxCell id="ZgPxEoPp8YiGuE_f1vzz-12" value="- criterioSugerencia: Sugerencia" style="text;align=left;verticalAlign=top;spacingLeft=4;spacingRight=4;overflow=hidden;rotatable=0;points=[[0,0.5],[1,0.5]];portConstraint=eastwest;rounded=0;shadow=0;html=0;" vertex="1" parent="ZgPxEoPp8YiGuE_f1vzz-11">
          <mxGeometry y="30" width="260" height="22" as="geometry" />
        </mxCell>
        <mxCell id="ZgPxEoPp8YiGuE_f1vzz-13" value="" style="line;html=1;strokeWidth=1;align=left;verticalAlign=middle;spacingTop=-1;spacingLeft=3;spacingRight=3;rotatable=0;labelPosition=right;points=[];portConstraint=eastwest;" vertex="1" parent="ZgPxEoPp8YiGuE_f1vzz-11">
          <mxGeometry y="52" width="260" height="8" as="geometry" />
        </mxCell>
        <mxCell id="ZgPxEoPp8YiGuE_f1vzz-14" value="+ agregarPelicula(pelicula: Pelicula)" style="text;align=left;verticalAlign=top;spacingLeft=4;spacingRight=4;overflow=hidden;rotatable=0;points=[[0,0.5],[1,0.5]];portConstraint=eastwest;rounded=0;shadow=0;html=0;" vertex="1" parent="ZgPxEoPp8YiGuE_f1vzz-11">
          <mxGeometry y="60" width="260" height="24" as="geometry" />
        </mxCell>
        <mxCell id="ZgPxEoPp8YiGuE_f1vzz-15" value="+ agregarReproducida(pelicula: Pelicula)" style="text;align=left;verticalAlign=top;spacingLeft=4;spacingRight=4;overflow=hidden;rotatable=0;points=[[0,0.5],[1,0.5]];portConstraint=eastwest;rounded=0;shadow=0;html=0;" vertex="1" parent="ZgPxEoPp8YiGuE_f1vzz-11">
          <mxGeometry y="84" width="260" height="22" as="geometry" />
        </mxCell>
        <mxCell id="ZgPxEoPp8YiGuE_f1vzz-16" value="+ obtenerSugerencias(): Pelicula[*]" style="text;align=left;verticalAlign=top;spacingLeft=4;spacingRight=4;overflow=hidden;rotatable=0;points=[[0,0.5],[1,0.5]];portConstraint=eastwest;rounded=0;shadow=0;html=0;" vertex="1" parent="ZgPxEoPp8YiGuE_f1vzz-11">
          <mxGeometry y="106" width="260" height="22" as="geometry" />
        </mxCell>
        <mxCell id="ZgPxEoPp8YiGuE_f1vzz-17" value="+ fueReproducida(pelicula: Pelicula): boolean" style="text;align=left;verticalAlign=top;spacingLeft=4;spacingRight=4;overflow=hidden;rotatable=0;points=[[0,0.5],[1,0.5]];portConstraint=eastwest;rounded=0;shadow=0;html=0;" vertex="1" parent="ZgPxEoPp8YiGuE_f1vzz-11">
          <mxGeometry y="128" width="260" height="22" as="geometry" />
        </mxCell>
        <mxCell id="ZgPxEoPp8YiGuE_f1vzz-18" value="+ mostrarPeliculas(): String" style="text;align=left;verticalAlign=top;spacingLeft=4;spacingRight=4;overflow=hidden;rotatable=0;points=[[0,0.5],[1,0.5]];portConstraint=eastwest;rounded=0;shadow=0;html=0;" vertex="1" parent="ZgPxEoPp8YiGuE_f1vzz-11">
          <mxGeometry y="150" width="260" height="22" as="geometry" />
        </mxCell>
        <mxCell id="ZgPxEoPp8YiGuE_f1vzz-19" value="+ mostrarReproducidas(): String" style="text;align=left;verticalAlign=top;spacingLeft=4;spacingRight=4;overflow=hidden;rotatable=0;points=[[0,0.5],[1,0.5]];portConstraint=eastwest;rounded=0;shadow=0;html=0;" vertex="1" parent="ZgPxEoPp8YiGuE_f1vzz-11">
          <mxGeometry y="172" width="260" height="22" as="geometry" />
        </mxCell>
        <mxCell id="ZgPxEoPp8YiGuE_f1vzz-20" value="&lt;&lt;abstract&gt;&gt;&#xa;SugerenciaÂ " style="swimlane;fontStyle=0;align=center;verticalAlign=top;childLayout=stackLayout;horizontal=1;startSize=40;horizontalStack=0;resizeParent=1;resizeLast=0;collapsible=1;marginBottom=0;rounded=0;shadow=0;strokeWidth=1;fillColor=#fff2cc;strokeColor=#d6b656;" vertex="1" parent="1">
          <mxGeometry x="280" y="-2780" width="400" height="120" as="geometry">
            <mxRectangle x="110" y="-20" width="160" height="26" as="alternateBounds" />
          </mxGeometry>
        </mxCell>
        <mxCell id="ZgPxEoPp8YiGuE_f1vzz-21" value="" style="line;html=1;strokeWidth=1;align=left;verticalAlign=middle;spacingTop=-1;spacingLeft=3;spacingRight=3;rotatable=0;labelPosition=right;points=[];portConstraint=eastwest;" vertex="1" parent="ZgPxEoPp8YiGuE_f1vzz-20">
          <mxGeometry y="40" width="400" height="8" as="geometry" />
        </mxCell>
        <mxCell id="ZgPxEoPp8YiGuE_f1vzz-22" value="+ sugerirPeliculas(decodificador: Decodificador): Pelicula[*]" style="text;align=left;verticalAlign=top;spacingLeft=4;spacingRight=4;overflow=hidden;rotatable=0;points=[[0,0.5],[1,0.5]];portConstraint=eastwest;rounded=0;shadow=0;html=0;" vertex="1" parent="ZgPxEoPp8YiGuE_f1vzz-20">
          <mxGeometry y="48" width="400" height="24" as="geometry" />
        </mxCell>
        <mxCell id="ZgPxEoPp8YiGuE_f1vzz-23" value="+ obtenerSugerencias(decodificador: Decodificador): Pelicula[*]" style="text;align=left;verticalAlign=top;spacingLeft=4;spacingRight=4;overflow=hidden;rotatable=0;points=[[0,0.5],[1,0.5]];portConstraint=eastwest;rounded=0;shadow=0;html=0;" vertex="1" parent="ZgPxEoPp8YiGuE_f1vzz-20">
          <mxGeometry y="72" width="400" height="22" as="geometry" />
        </mxCell>
        <mxCell id="ZgPxEoPp8YiGuE_f1vzz-24" style="edgeStyle=orthogonalEdgeStyle;rounded=0;orthogonalLoop=1;jettySize=auto;html=1;" edge="1" parent="1" source="ZgPxEoPp8YiGuE_f1vzz-25" target="ZgPxEoPp8YiGuE_f1vzz-20">
          <mxGeometry relative="1" as="geometry">
            <Array as="points">
              <mxPoint x="740" y="-2600" />
              <mxPoint x="740" y="-2720" />
            </Array>
          </mxGeometry>
        </mxCell>
        <mxCell id="ZgPxEoPp8YiGuE_f1vzz-25" value="SugerenciaNovedadÂ " style="swimlane;fontStyle=0;align=center;verticalAlign=top;childLayout=stackLayout;horizontal=1;startSize=30;horizontalStack=0;resizeParent=1;resizeLast=0;collapsible=1;marginBottom=0;rounded=0;shadow=0;strokeWidth=1;fillColor=#fff2cc;strokeColor=#d6b656;" vertex="1" parent="1">
          <mxGeometry x="800" y="-2640" width="360" height="80" as="geometry">
            <mxRectangle x="110" y="-20" width="160" height="26" as="alternateBounds" />
          </mxGeometry>
        </mxCell>
        <mxCell id="ZgPxEoPp8YiGuE_f1vzz-26" value="" style="line;html=1;strokeWidth=1;align=left;verticalAlign=middle;spacingTop=-1;spacingLeft=3;spacingRight=3;rotatable=0;labelPosition=right;points=[];portConstraint=eastwest;" vertex="1" parent="ZgPxEoPp8YiGuE_f1vzz-25">
          <mxGeometry y="30" width="360" height="8" as="geometry" />
        </mxCell>
        <mxCell id="ZgPxEoPp8YiGuE_f1vzz-27" value="+ sugerirPeliculas(decodificador: Decodificador): Pelicula[*]" style="text;align=left;verticalAlign=top;spacingLeft=4;spacingRight=4;overflow=hidden;rotatable=0;points=[[0,0.5],[1,0.5]];portConstraint=eastwest;rounded=0;shadow=0;html=0;" vertex="1" parent="ZgPxEoPp8YiGuE_f1vzz-25">
          <mxGeometry y="38" width="360" height="24" as="geometry" />
        </mxCell>
        <mxCell id="ZgPxEoPp8YiGuE_f1vzz-28" style="edgeStyle=orthogonalEdgeStyle;rounded=0;orthogonalLoop=1;jettySize=auto;html=1;" edge="1" parent="1" source="ZgPxEoPp8YiGuE_f1vzz-29" target="ZgPxEoPp8YiGuE_f1vzz-20">
          <mxGeometry relative="1" as="geometry" />
        </mxCell>
        <mxCell id="ZgPxEoPp8YiGuE_f1vzz-29" value="SugerenciaPuntaje" style="swimlane;fontStyle=0;align=center;verticalAlign=top;childLayout=stackLayout;horizontal=1;startSize=30;horizontalStack=0;resizeParent=1;resizeLast=0;collapsible=1;marginBottom=0;rounded=0;shadow=0;strokeWidth=1;fillColor=#fff2cc;strokeColor=#d6b656;" vertex="1" parent="1">
          <mxGeometry x="800" y="-2760" width="360" height="80" as="geometry">
            <mxRectangle x="110" y="-20" width="160" height="26" as="alternateBounds" />
          </mxGeometry>
        </mxCell>
        <mxCell id="ZgPxEoPp8YiGuE_f1vzz-30" value="" style="line;html=1;strokeWidth=1;align=left;verticalAlign=middle;spacingTop=-1;spacingLeft=3;spacingRight=3;rotatable=0;labelPosition=right;points=[];portConstraint=eastwest;" vertex="1" parent="ZgPxEoPp8YiGuE_f1vzz-29">
          <mxGeometry y="30" width="360" height="8" as="geometry" />
        </mxCell>
        <mxCell id="ZgPxEoPp8YiGuE_f1vzz-31" value="+ sugerirPeliculas(decodificador: Decodificador): Pelicula[*]" style="text;align=left;verticalAlign=top;spacingLeft=4;spacingRight=4;overflow=hidden;rotatable=0;points=[[0,0.5],[1,0.5]];portConstraint=eastwest;rounded=0;shadow=0;html=0;" vertex="1" parent="ZgPxEoPp8YiGuE_f1vzz-29">
          <mxGeometry y="38" width="360" height="24" as="geometry" />
        </mxCell>
        <mxCell id="ZgPxEoPp8YiGuE_f1vzz-32" style="edgeStyle=orthogonalEdgeStyle;rounded=0;orthogonalLoop=1;jettySize=auto;html=1;" edge="1" parent="1" source="ZgPxEoPp8YiGuE_f1vzz-33" target="ZgPxEoPp8YiGuE_f1vzz-20">
          <mxGeometry relative="1" as="geometry">
            <Array as="points">
              <mxPoint x="740" y="-2840" />
              <mxPoint x="740" y="-2720" />
            </Array>
          </mxGeometry>
        </mxCell>
        <mxCell id="ZgPxEoPp8YiGuE_f1vzz-33" value="SugerenciaSimilaridad" style="swimlane;fontStyle=0;align=center;verticalAlign=top;childLayout=stackLayout;horizontal=1;startSize=30;horizontalStack=0;resizeParent=1;resizeLast=0;collapsible=1;marginBottom=0;rounded=0;shadow=0;strokeWidth=1;fillColor=#fff2cc;strokeColor=#d6b656;" vertex="1" parent="1">
          <mxGeometry x="800" y="-2880" width="360" height="80" as="geometry">
            <mxRectangle x="110" y="-20" width="160" height="26" as="alternateBounds" />
          </mxGeometry>
        </mxCell>
        <mxCell id="ZgPxEoPp8YiGuE_f1vzz-34" value="" style="line;html=1;strokeWidth=1;align=left;verticalAlign=middle;spacingTop=-1;spacingLeft=3;spacingRight=3;rotatable=0;labelPosition=right;points=[];portConstraint=eastwest;" vertex="1" parent="ZgPxEoPp8YiGuE_f1vzz-33">
          <mxGeometry y="30" width="360" height="8" as="geometry" />
        </mxCell>
        <mxCell id="ZgPxEoPp8YiGuE_f1vzz-35" value="+ sugerirPeliculas(decodificador: Decodificador): Pelicula[*]" style="text;align=left;verticalAlign=top;spacingLeft=4;spacingRight=4;overflow=hidden;rotatable=0;points=[[0,0.5],[1,0.5]];portConstraint=eastwest;rounded=0;shadow=0;html=0;" vertex="1" parent="ZgPxEoPp8YiGuE_f1vzz-33">
          <mxGeometry y="38" width="360" height="24" as="geometry" />
        </mxCell>
        <mxCell id="ZgPxEoPp8YiGuE_f1vzz-36" value="criterio" style="text;html=1;align=center;verticalAlign=middle;whiteSpace=wrap;rounded=0;fontSize=14;" vertex="1" parent="1">
          <mxGeometry x="471.25" y="-2822.5" width="68.75" height="15" as="geometry" />
        </mxCell>
        <mxCell id="ZgPxEoPp8YiGuE_f1vzz-37" value="&lt;span style=&quot;color: rgb(0, 0, 0); font-family: Helvetica; font-size: 14px; font-style: normal; font-variant-ligatures: normal; font-variant-caps: normal; font-weight: 400; letter-spacing: normal; orphans: 2; text-align: center; text-indent: 0px; text-transform: none; widows: 2; word-spacing: 0px; -webkit-text-stroke-width: 0px; white-space: normal; background-color: rgb(251, 251, 251); text-decoration-thickness: initial; text-decoration-style: initial; text-decoration-color: initial; display: inline !important; float: none;&quot;&gt;1&lt;/span&gt;" style="text;whiteSpace=wrap;html=1;" vertex="1" parent="1">
          <mxGeometry x="460" y="-2830" width="16.5" height="30" as="geometry" />
        </mxCell>
        <mxCell id="ZgPxEoPp8YiGuE_f1vzz-38" value="&lt;font style=&quot;font-size: 16px;&quot;&gt;&lt;b style=&quot;font-size: 16px;&quot;&gt;&lt;i style=&quot;font-size: 16px;&quot;&gt;Concrete Strategy&lt;/i&gt;&lt;/b&gt;&lt;/font&gt;" style="text;html=1;align=center;verticalAlign=middle;whiteSpace=wrap;rounded=0;fontSize=16;" vertex="1" parent="1">
          <mxGeometry x="800" y="-2900" width="160" height="20" as="geometry" />
        </mxCell>
        <mxCell id="ZgPxEoPp8YiGuE_f1vzz-39" value="&lt;font style=&quot;font-size: 16px;&quot;&gt;&lt;b style=&quot;font-size: 16px;&quot;&gt;&lt;i style=&quot;font-size: 16px;&quot;&gt;Concrete Strategy&lt;/i&gt;&lt;/b&gt;&lt;/font&gt;" style="text;html=1;align=center;verticalAlign=middle;whiteSpace=wrap;rounded=0;fontSize=16;" vertex="1" parent="1">
          <mxGeometry x="800" y="-2780" width="160" height="20" as="geometry" />
        </mxCell>
        <mxCell id="ZgPxEoPp8YiGuE_f1vzz-40" value="&lt;font style=&quot;font-size: 16px;&quot;&gt;&lt;b style=&quot;font-size: 16px;&quot;&gt;&lt;i style=&quot;font-size: 16px;&quot;&gt;Concrete Strategy&lt;/i&gt;&lt;/b&gt;&lt;/font&gt;" style="text;html=1;align=center;verticalAlign=middle;whiteSpace=wrap;rounded=0;fontSize=16;" vertex="1" parent="1">
          <mxGeometry x="800" y="-2660" width="170" height="20" as="geometry" />
        </mxCell>
        <mxCell id="ZgPxEoPp8YiGuE_f1vzz-41" value="&lt;font style=&quot;font-size: 16px;&quot;&gt;&lt;b style=&quot;font-size: 16px;&quot;&gt;&lt;i style=&quot;font-size: 16px;&quot;&gt;Strategy&lt;/i&gt;&lt;/b&gt;&lt;/font&gt;" style="text;html=1;align=center;verticalAlign=middle;whiteSpace=wrap;rounded=0;fontSize=16;" vertex="1" parent="1">
          <mxGeometry x="280" y="-2800" width="70" height="20" as="geometry" />
        </mxCell>
        <mxCell id="ZgPxEoPp8YiGuE_f1vzz-42" value="&lt;font style=&quot;font-size: 16px;&quot;&gt;&lt;b style=&quot;font-size: 16px;&quot;&gt;&lt;i style=&quot;font-size: 16px;&quot;&gt;Context&lt;/i&gt;&lt;/b&gt;&lt;/font&gt;" style="text;html=1;align=center;verticalAlign=middle;whiteSpace=wrap;rounded=0;fontSize=16;" vertex="1" parent="1">
          <mxGeometry x="350" y="-3070" width="70" height="20" as="geometry" />
        </mxCell>
        <mxCell id="ZgPxEoPp8YiGuE_f1vzz-43" value="reproducidas" style="text;html=1;align=center;verticalAlign=middle;whiteSpace=wrap;rounded=0;fontSize=14;" vertex="1" parent="1">
          <mxGeometry x="250" y="-2920" width="89.38" height="15" as="geometry" />
        </mxCell>
        <mxCell id="ZgPxEoPp8YiGuE_f1vzz-44" style="edgeStyle=orthogonalEdgeStyle;rounded=0;orthogonalLoop=1;jettySize=auto;html=1;" edge="1" parent="1">
          <mxGeometry relative="1" as="geometry">
            <mxPoint x="349.69" y="-2900" as="sourcePoint" />
            <mxPoint x="239.69" y="-2900" as="targetPoint" />
            <Array as="points">
              <mxPoint x="329.69" y="-2900" />
              <mxPoint x="329.69" y="-2900" />
            </Array>
          </mxGeometry>
        </mxCell>
        <mxCell id="ZgPxEoPp8YiGuE_f1vzz-45" style="edgeStyle=orthogonalEdgeStyle;rounded=0;orthogonalLoop=1;jettySize=auto;html=1;" edge="1" parent="1">
          <mxGeometry relative="1" as="geometry">
            <mxPoint x="349.69" y="-2980" as="sourcePoint" />
            <mxPoint x="239.69" y="-2980" as="targetPoint" />
            <Array as="points">
              <mxPoint x="329.69" y="-2980" />
              <mxPoint x="329.69" y="-2980" />
            </Array>
          </mxGeometry>
        </mxCell>
        <mxCell id="ZgPxEoPp8YiGuE_f1vzz-46" value="peliculas" style="text;html=1;align=center;verticalAlign=middle;whiteSpace=wrap;rounded=0;fontSize=14;" vertex="1" parent="1">
          <mxGeometry x="250" y="-3000" width="89.38" height="15" as="geometry" />
        </mxCell>
        <mxCell id="ZgPxEoPp8YiGuE_f1vzz-47" value="&lt;font style=&quot;font-size: 20px;&quot;&gt;*&lt;/font&gt;" style="text;html=1;align=center;verticalAlign=middle;whiteSpace=wrap;rounded=0;fontSize=14;" vertex="1" parent="1">
          <mxGeometry x="250" y="-2895" width="89.38" height="15" as="geometry" />
        </mxCell>
        <mxCell id="ZgPxEoPp8YiGuE_f1vzz-48" value="&lt;font style=&quot;font-size: 20px;&quot;&gt;*&lt;/font&gt;" style="text;html=1;align=center;verticalAlign=middle;whiteSpace=wrap;rounded=0;fontSize=14;" vertex="1" parent="1">
          <mxGeometry x="250" y="-2980" width="89.38" height="25" as="geometry" />
        </mxCell>
        <mxCell id="ZgPxEoPp8YiGuE_f1vzz-49" value="similares" style="text;html=1;align=center;verticalAlign=middle;whiteSpace=wrap;rounded=0;fontSize=14;" vertex="1" parent="1">
          <mxGeometry x="102.66" y="-2817.5" width="74.69" height="10" as="geometry" />
        </mxCell>
        <mxCell id="ZgPxEoPp8YiGuE_f1vzz-50" value="&lt;font style=&quot;font-size: 20px;&quot;&gt;*&lt;/font&gt;" style="text;html=1;align=center;verticalAlign=middle;whiteSpace=wrap;rounded=0;fontSize=14;" vertex="1" parent="1">
          <mxGeometry x="95.31" y="-2795" width="89.38" height="15" as="geometry" />
        </mxCell>
        <mxCell id="ZgPxEoPp8YiGuE_f1vzz-51" value="&lt;span style=&quot;font-size: 20px;&quot;&gt;&lt;b&gt;&lt;i&gt;ejercicio_13_DecodificadorDePeliculas&lt;/i&gt;&lt;/b&gt;&lt;/span&gt;" style="text;html=1;align=center;verticalAlign=middle;resizable=0;points=[];autosize=1;strokeColor=none;fillColor=none;" vertex="1" parent="1">
          <mxGeometry x="840" y="-2520" width="390" height="40" as="geometry" />
        </mxCell>
        <mxCell id="ZgPxEoPp8YiGuE_f1vzz-52" value="&lt;b style=&quot;&quot;&gt;&lt;i&gt;&lt;font style=&quot;font-size: 20px;&quot;&gt;Patron Strategy&lt;/font&gt;&lt;/i&gt;&lt;/b&gt;" style="text;html=1;align=center;verticalAlign=middle;resizable=0;points=[];autosize=1;strokeColor=none;fillColor=none;" vertex="1" parent="1">
          <mxGeometry x="-40" y="-3120" width="170" height="40" as="geometry" />
        </mxCell>
      </root>
    </mxGraphModel>
  </diagram>
</mxfile>
